<?xml version="1.0" standalone="no"?>
<!DOCTYPE svg PUBLIC "-//W3C//DTD SVG 20010904//EN"
 "http://www.w3.org/TR/2001/REC-SVG-20010904/DTD/svg10.dtd">
<svg version="1.0" xmlns="http://www.w3.org/2000/svg"
 width="770.000000pt" height="770.000000pt" viewBox="0 0 770.000000 770.000000"
 preserveAspectRatio="xMidYMid meet">
<metadata>
Created by potrace 1.14, written by Peter Selinger 2001-2017
</metadata>
<g transform="translate(0.000000,770.000000) scale(0.100000,-0.100000)"
fill="#000000" stroke="none">
<path d="M7460 5160 c-19 -5 -165 -61 -323 -124 -159 -64 -293 -116 -298 -116
-5 0 -28 -9 -52 -19 -23 -11 -76 -32 -117 -46 -41 -15 -124 -45 -185 -67 -454
-164 -1026 -349 -1475 -477 -242 -69 -326 -92 -345 -97 -5 -1 -39 -10 -75 -19
-36 -9 -69 -18 -75 -19 -5 -1 -19 -5 -30 -9 -11 -3 -31 -8 -45 -11 -14 -3 -61
-14 -105 -26 -87 -22 -493 -118 -537 -125 -14 -3 -77 -16 -140 -29 -120 -26
-465 -92 -533 -101 -22 -3 -62 -10 -90 -15 -27 -5 -70 -12 -95 -15 -25 -3 -70
-10 -100 -15 -30 -5 -77 -12 -105 -15 -27 -4 -61 -8 -75 -10 -14 -2 -47 -7
-75 -10 -27 -4 -61 -8 -75 -10 -65 -10 -387 -40 -413 -38 -25 1 -22 -5 23 -46
l40 -36 -32 -37 c-18 -20 -64 -73 -102 -118 -61 -72 -70 -80 -85 -67 -9 8 -29
25 -46 39 -16 14 -63 53 -103 87 l-72 62 35 37 c45 48 44 59 -2 55 -131 -12
-594 -4 -653 12 -8 2 -35 7 -59 10 -78 11 -230 54 -295 84 l-64 29 -72 -84
c-63 -74 -74 -83 -88 -72 -25 19 -59 49 -145 123 l-78 68 28 31 c15 17 30 33
33 36 3 3 22 27 44 53 l38 48 -35 77 c-19 42 -40 100 -46 127 -26 111 -16 311
24 464 24 95 17 179 -17 202 -42 27 -156 -77 -210 -191 -49 -104 -86 -225
-114 -380 -2 -14 -7 -37 -10 -52 -3 -16 -2 -28 3 -28 5 0 32 -20 60 -45 l52
-46 -60 -62 c-88 -90 -87 -89 -84 -262 1 -83 5 -159 8 -170 3 -11 9 -40 12
-65 14 -99 76 -311 113 -384 l14 -29 17 21 c9 12 59 73 111 135 l95 114 55
-47 c30 -25 135 -115 233 -198 l179 -152 31 37 c74 85 100 116 227 268 73 88
135 162 136 164 2 2 57 -41 122 -96 l119 -100 -169 -204 c-93 -112 -183 -219
-199 -238 -33 -37 -23 -41 -119 39 -30 25 -76 63 -101 83 l-45 37 -95 -110
c-52 -60 -96 -110 -99 -110 -3 0 -56 42 -119 94 l-112 94 -45 -48 c-24 -26
-44 -52 -44 -57 0 -19 142 -145 226 -199 234 -153 502 -224 864 -229 63 -1
118 0 123 3 4 2 -16 25 -45 50 -28 26 -78 72 -111 103 l-60 55 98 117 c85 102
99 116 114 105 39 -30 207 -174 213 -182 6 -10 -13 -36 -124 -170 -32 -39 -58
-73 -58 -76 0 -3 12 -5 28 -4 15 1 79 5 142 9 63 4 128 8 143 10 15 2 60 6
100 10 40 3 83 8 97 10 14 2 48 7 75 10 61 7 135 16 155 20 8 1 40 6 70 10 79
11 93 14 100 22 14 17 154 188 156 192 2 1 41 -29 87 -68 l84 -71 54 10 c30 6
68 13 84 16 17 3 46 9 65 14 19 5 49 12 65 15 75 13 92 17 125 25 19 5 46 11
60 14 14 3 84 19 155 37 72 17 155 37 185 44 55 12 466 121 590 155 662 185
1524 467 1910 625 195 80 283 102 335 85 63 -21 77 -100 41 -230 -15 -56 -84
-240 -110 -295 -8 -16 -31 -73 -51 -125 -20 -52 -40 -104 -45 -115 -49 -115
-52 -237 -6 -267 20 -14 70 -8 101 10 68 42 120 110 264 342 46 74 93 151 106
170 12 19 55 89 94 155 40 66 76 127 81 135 57 93 90 152 90 160 0 6 5 10 10
10 6 0 10 5 10 10 0 6 20 43 43 83 203 337 561 1019 608 1157 28 82 30 175 5
212 -9 14 -31 31 -48 37 -36 13 -117 13 -168 1z m-4430 -1532 c20 -18 59 -52
86 -74 27 -23 62 -53 78 -67 l29 -25 -31 -33 c-16 -19 -61 -71 -100 -116 l-71
-83 -113 95 c-62 52 -117 93 -123 92 -5 -2 -117 -131 -248 -288 -131 -156
-245 -293 -255 -304 -9 -11 -34 -41 -55 -67 l-39 -47 -41 38 c-23 21 -58 52
-77 67 -19 16 -52 46 -74 66 l-39 36 44 54 c24 29 46 55 49 58 3 3 48 57 100
120 52 63 97 117 100 120 3 3 39 46 80 95 41 50 79 95 85 101 5 7 26 31 45 55
19 24 47 57 61 73 l27 30 48 -39 c27 -22 56 -45 64 -52 8 -6 40 -32 70 -57 51
-41 56 -43 70 -28 8 10 40 46 70 82 78 92 113 130 118 130 2 0 21 -15 42 -32z"/>
</g>
</svg>
